<svg width="101" height="24" viewBox="0 0 101 24" fill="none" xmlns="http://www.w3.org/2000/svg">
<g clip-path="url(#clip0_1_349)">
<path d="M2.01 21L23 12L2.01 3L2 10L17 12L2 14L2.01 21Z" fill="white"/>
</g>
<path d="M37.9445 18.216C36.9365 18.216 35.9705 18.084 35.0465 17.82C34.1225 17.544 33.3785 17.19 32.8145 16.758L33.8045 14.562C34.3445 14.946 34.9805 15.264 35.7125 15.516C36.4565 15.756 37.2065 15.876 37.9625 15.876C38.5385 15.876 39.0005 15.822 39.3485 15.714C39.7085 15.594 39.9725 15.432 40.1405 15.228C40.3085 15.024 40.3925 14.79 40.3925 14.526C40.3925 14.19 40.2605 13.926 39.9965 13.734C39.7325 13.53 39.3845 13.368 38.9525 13.248C38.5205 13.116 38.0405 12.996 37.5125 12.888C36.9965 12.768 36.4745 12.624 35.9465 12.456C35.4305 12.288 34.9565 12.072 34.5245 11.808C34.0925 11.544 33.7385 11.196 33.4625 10.764C33.1985 10.332 33.0665 9.78 33.0665 9.108C33.0665 8.388 33.2585 7.734 33.6425 7.146C34.0385 6.546 34.6265 6.072 35.4065 5.724C36.1985 5.364 37.1885 5.184 38.3765 5.184C39.1685 5.184 39.9485 5.28 40.7165 5.472C41.4845 5.652 42.1625 5.928 42.7505 6.3L41.8505 8.514C41.2625 8.178 40.6745 7.932 40.0865 7.776C39.4985 7.608 38.9225 7.524 38.3585 7.524C37.7945 7.524 37.3325 7.59 36.9725 7.722C36.6125 7.854 36.3545 8.028 36.1985 8.244C36.0425 8.448 35.9645 8.688 35.9645 8.964C35.9645 9.288 36.0965 9.552 36.3605 9.756C36.6245 9.948 36.9725 10.104 37.4045 10.224C37.8365 10.344 38.3105 10.464 38.8265 10.584C39.3545 10.704 39.8765 10.842 40.3925 10.998C40.9205 11.154 41.4005 11.364 41.8325 11.628C42.2645 11.892 42.6125 12.24 42.8765 12.672C43.1525 13.104 43.2905 13.65 43.2905 14.31C43.2905 15.018 43.0925 15.666 42.6965 16.254C42.3005 16.842 41.7065 17.316 40.9145 17.676C40.1345 18.036 39.1445 18.216 37.9445 18.216ZM49.1711 18.144C48.3671 18.144 47.6471 17.988 47.0111 17.676C46.3871 17.364 45.9011 16.89 45.5531 16.254C45.2051 15.606 45.0311 14.784 45.0311 13.788V8.316H47.8391V13.374C47.8391 14.178 48.0071 14.772 48.3431 15.156C48.6911 15.528 49.1771 15.714 49.8011 15.714C50.2331 15.714 50.6171 15.624 50.9531 15.444C51.2891 15.252 51.5531 14.964 51.7451 14.58C51.9371 14.184 52.0331 13.692 52.0331 13.104V8.316H54.8411V18H52.1771V15.336L52.6631 16.11C52.3391 16.782 51.8591 17.292 51.2231 17.64C50.5991 17.976 49.9151 18.144 49.1711 18.144ZM63.1665 18.144C62.3145 18.144 61.5825 17.964 60.9705 17.604C60.3585 17.244 59.8905 16.698 59.5665 15.966C59.2425 15.222 59.0805 14.286 59.0805 13.158C59.0805 12.018 59.2485 11.082 59.5845 10.35C59.9325 9.618 60.4125 9.072 61.0245 8.712C61.6365 8.352 62.3505 8.172 63.1665 8.172C64.0785 8.172 64.8945 8.376 65.6145 8.784C66.3465 9.192 66.9225 9.768 67.3425 10.512C67.7745 11.256 67.9905 12.138 67.9905 13.158C67.9905 14.166 67.7745 15.042 67.3425 15.786C66.9225 16.53 66.3465 17.112 65.6145 17.532C64.8945 17.94 64.0785 18.144 63.1665 18.144ZM57.4425 18V4.644H60.2505V10.278L60.0705 13.14L60.1245 16.02V18H57.4425ZM62.6805 15.84C63.1485 15.84 63.5625 15.732 63.9225 15.516C64.2945 15.3 64.5885 14.994 64.8045 14.598C65.0325 14.19 65.1465 13.71 65.1465 13.158C65.1465 12.594 65.0325 12.114 64.8045 11.718C64.5885 11.322 64.2945 11.016 63.9225 10.8C63.5625 10.584 63.1485 10.476 62.6805 10.476C62.2125 10.476 61.7925 10.584 61.4205 10.8C61.0485 11.016 60.7545 11.322 60.5385 11.718C60.3225 12.114 60.2145 12.594 60.2145 13.158C60.2145 13.71 60.3225 14.19 60.5385 14.598C60.7545 14.994 61.0485 15.3 61.4205 15.516C61.7925 15.732 62.2125 15.84 62.6805 15.84ZM82.2722 8.172C83.0402 8.172 83.7182 8.328 84.3062 8.64C84.9062 8.94 85.3742 9.408 85.7102 10.044C86.0582 10.668 86.2322 11.472 86.2322 12.456V18H83.4242V12.888C83.4242 12.108 83.2622 11.532 82.9382 11.16C82.6142 10.788 82.1582 10.602 81.5702 10.602C81.1622 10.602 80.7962 10.698 80.4722 10.89C80.1482 11.07 79.8962 11.346 79.7162 11.718C79.5362 12.09 79.4462 12.564 79.4462 13.14V18H76.6382V12.888C76.6382 12.108 76.4762 11.532 76.1522 11.16C75.8402 10.788 75.3902 10.602 74.8022 10.602C74.3942 10.602 74.0282 10.698 73.7042 10.89C73.3802 11.07 73.1282 11.346 72.9482 11.718C72.7682 12.09 72.6782 12.564 72.6782 13.14V18H69.8702V8.316H72.5522V10.962L72.0482 10.188C72.3842 9.528 72.8582 9.03 73.4702 8.694C74.0942 8.346 74.8022 8.172 75.5942 8.172C76.4822 8.172 77.2562 8.4 77.9162 8.856C78.5882 9.3 79.0322 9.984 79.2482 10.908L78.2582 10.638C78.5822 9.882 79.0982 9.282 79.8062 8.838C80.5262 8.394 81.3482 8.172 82.2722 8.172ZM88.7491 18V8.316H91.5571V18H88.7491ZM90.1531 6.966C89.6371 6.966 89.2171 6.816 88.8931 6.516C88.5691 6.216 88.4071 5.844 88.4071 5.4C88.4071 4.956 88.5691 4.584 88.8931 4.284C89.2171 3.984 89.6371 3.834 90.1531 3.834C90.6691 3.834 91.0891 3.978 91.4131 4.266C91.7371 4.542 91.8991 4.902 91.8991 5.346C91.8991 5.814 91.7371 6.204 91.4131 6.516C91.1011 6.816 90.6811 6.966 90.1531 6.966ZM98.1232 18.144C96.9832 18.144 96.0952 17.856 95.4592 17.28C94.8232 16.692 94.5052 15.822 94.5052 14.67V6.174H97.3132V14.634C97.3132 15.042 97.4212 15.36 97.6372 15.588C97.8532 15.804 98.1472 15.912 98.5192 15.912C98.9632 15.912 99.3412 15.792 99.6532 15.552L100.409 17.532C100.121 17.736 99.7732 17.892 99.3652 18C98.9692 18.096 98.5552 18.144 98.1232 18.144ZM93.0112 10.692V8.532H99.7252V10.692H93.0112Z" fill="white"/>
<defs>
<clipPath id="clip0_1_349">
<rect width="24" height="24" fill="white"/>
</clipPath>
</defs>
</svg>
